<svg width="715" height="508" viewBox="0 0 715 508" fill="none" xmlns="http://www.w3.org/2000/svg">
<path d="M715 0H0V508H715V0Z" fill="#FAFAFF"/>
<path opacity="0.1" d="M565.511 435.92C646.542 435.92 712.23 423.118 712.23 407.327C712.23 391.536 646.542 378.734 565.511 378.734C484.48 378.734 418.792 391.536 418.792 407.327C418.792 423.118 484.48 435.92 565.511 435.92Z" fill="#6C63FF"/>
<g opacity="0.5">
<path opacity="0.5" d="M439.839 72.0803C437.86 72.644 435.438 74.1126 434.244 78.1287C431.904 86.0007 437.34 91.3532 435.549 99.5593C435.052 101.736 434.106 103.785 432.772 105.573C430.585 108.545 428.211 109.951 425.907 112.032C422.984 114.691 420.889 118.14 419.874 121.964C418.763 126.186 418.67 130.611 419.604 134.876C420.423 138.439 421.818 141.035 423.04 143.924C424.559 147.608 425.746 151.421 426.587 155.318C427.049 157.215 427.309 159.156 427.364 161.109C427.33 163.703 427.098 166.29 426.67 168.848L423.345 192.11C422.84 195.151 422.537 198.223 422.436 201.304C422.48 204.392 422.835 207.468 423.498 210.485C424.664 216.637 425.921 223.013 428.593 226.27C431.266 229.528 435.819 228.359 438.617 221.767C441.276 215.461 441.338 207.046 443.684 200.309C447.384 189.694 454.736 188.268 458.817 178.14C462.732 168.396 461.531 156.508 463.517 145.427C464.905 137.486 467.966 130.247 469.764 122.403C472.347 111.106 472.09 99.3783 470.028 90.6919C468.46 83.5549 465.068 76.9489 460.185 71.5234C458.456 69.6094 456.603 67.9041 454.43 67.7301C452.119 67.5491 450.098 70.4655 447.815 71.3425C445.177 72.3796 442.525 71.3146 439.839 72.0803Z" fill="#6C63FF"/>
<path opacity="0.5" d="M452.354 68.3218C452.354 68.3218 448.439 168.786 431.974 228.024" stroke="#535461" stroke-width="2" stroke-miterlimit="10"/>
<path opacity="0.5" d="M434.146 78.6021C434.146 78.6021 451.744 94.6663 448.405 125.236" stroke="#535461" stroke-width="2" stroke-miterlimit="10"/>
<path opacity="0.5" d="M419.382 124.317C419.382 124.317 448.266 130.143 446.121 147.467" stroke="#535461" stroke-width="2" stroke-miterlimit="10"/>
<path opacity="0.5" d="M470.077 90.4832C470.077 90.4832 458.387 100.743 447.974 129.802" stroke="#535461" stroke-width="2" stroke-miterlimit="10"/>
<path opacity="0.5" d="M458.658 178.307C458.658 178.307 450.682 184.572 444.281 162.64" stroke="#535461" stroke-width="2" stroke-miterlimit="10"/>
<path opacity="0.5" d="M424.241 191.121C424.241 191.121 440.505 188.991 442.004 178.781" stroke="#535461" stroke-width="2" stroke-miterlimit="10"/>
</g>
<path d="M479.156 4.69814C475.13 5.29672 470.285 7.16903 468.293 12.9391C464.384 24.2564 476.262 32.8245 473.527 44.6499C472.71 47.9042 470.992 50.8603 468.57 53.1762C464.405 57.2897 459.643 59.0854 455.131 61.8765C450.619 64.6676 445.933 69.0595 443.816 75.797C441.782 82.277 442.664 89.4321 444.781 94.7775C446.898 100.123 450.098 104.111 452.958 108.51C456.434 113.924 459.339 119.686 461.629 125.702C462.783 128.444 463.558 131.331 463.933 134.284C464.301 137.903 463.836 141.794 463.371 145.601L459.241 179.525C458.692 184.036 458.137 188.615 458.449 192.959C458.803 197.963 460.282 202.334 461.74 206.601C464.877 215.802 468.237 225.393 474.158 230.46C480.08 235.527 489.367 234.442 494.372 225.018C499.134 216.046 498.26 203.664 502.321 194.024C508.721 178.829 523.77 177.597 531.011 163.176C537.952 149.339 534.072 131.639 536.862 115.561C538.862 104.042 544.276 93.7405 547.053 82.4023C551.058 66.0666 549.135 48.7704 543.846 35.7687C538.556 22.7669 530.191 13.4959 521.216 6.37557C517.412 3.34786 513.379 0.612488 508.86 0.111351C504.056 -0.424588 500.217 3.62627 495.601 4.64942C490.228 5.77002 484.619 3.8838 479.156 4.69814Z" fill="#6C63FF"/>
<path d="M504.618 0.647339C504.618 0.647339 508.409 148.128 481.322 233.412" stroke="#535461" stroke-width="2" stroke-miterlimit="10"/>
<path d="M468.14 13.649C468.14 13.649 506.458 39.4019 503.175 84.0588" stroke="#535461" stroke-width="2" stroke-miterlimit="10"/>
<path d="M442.99 79.1936C442.99 79.1936 503.466 91.207 501.078 116.459" stroke="#535461" stroke-width="2" stroke-miterlimit="10"/>
<path d="M543.915 35.3928C543.915 35.3928 520.931 49.1114 502.827 90.6641" stroke="#535461" stroke-width="2" stroke-miterlimit="10"/>
<path d="M530.65 163.371C530.65 163.371 514.892 171.723 499.044 138.585" stroke="#535461" stroke-width="2" stroke-miterlimit="10"/>
<path d="M460.934 178.133C460.934 178.133 494.345 176.929 496.247 162.069" stroke="#535461" stroke-width="2" stroke-miterlimit="10"/>
<path d="M46.6828 402.712C46.6828 402.712 52.5 410.369 43.9964 421.853C35.4929 433.338 28.4679 443.096 31.3209 450.279C31.3209 450.279 44.1491 428.89 54.5894 428.591C65.0297 428.291 58.1713 415.575 46.6828 402.712Z" fill="#2965F1"/>
<path opacity="0.1" d="M46.6827 402.712C47.2018 403.448 47.6132 404.254 47.9044 405.107C58.0948 417.106 63.5163 428.305 53.7285 428.591C44.6071 428.855 33.667 445.205 31.0431 449.339C31.1297 449.658 31.234 449.972 31.3555 450.279C31.3555 450.279 44.1837 428.89 54.624 428.591C65.0643 428.291 58.1712 415.575 46.6827 402.712Z" fill="black"/>
<path d="M57.4978 412.436C57.4978 415.123 57.1993 417.308 56.8037 417.308C56.408 417.308 56.1095 415.13 56.1095 412.436C56.1095 409.742 56.4843 411.044 56.8523 411.044C57.2202 411.044 57.4978 409.749 57.4978 412.436Z" fill="#FFD037"/>
<path d="M61.2116 415.638C58.8584 416.925 56.8106 417.726 56.6371 417.371C56.4635 417.016 58.2198 415.735 60.573 414.454C62.9262 413.174 61.9961 414.106 62.1765 414.454C62.357 414.802 63.5579 414.35 61.2116 415.638Z" fill="#FFD037"/>
<path d="M15.9728 402.712C15.9728 402.712 10.1556 410.369 18.6592 421.853C27.1628 433.338 34.1739 443.089 31.3347 450.272C31.3347 450.272 18.5065 428.883 8.0662 428.584C-2.37409 428.284 4.47041 415.575 15.9728 402.712Z" fill="#2965F1"/>
<path opacity="0.1" d="M15.9728 402.712C15.4659 403.45 15.0662 404.256 14.7857 405.107C4.59536 417.106 -0.826096 428.305 8.96167 428.591C18.083 428.855 29.0231 445.205 31.6471 449.339C31.5605 449.658 31.4562 449.972 31.3347 450.279C31.3347 450.279 18.5065 428.89 8.0662 428.591C-2.37409 428.291 4.47041 415.575 15.9728 402.712Z" fill="black"/>
<path d="M5.14368 412.436C5.14368 415.123 5.44217 417.308 5.83784 417.308C6.23352 417.308 6.53201 415.13 6.53201 412.436C6.53201 409.742 6.15716 411.044 5.78925 411.044C5.42134 411.044 5.14368 409.749 5.14368 412.436Z" fill="#FFD037"/>
<path d="M1.42992 415.638C3.78315 416.925 5.83095 417.726 6.00449 417.371C6.17803 417.016 4.42179 415.735 2.06856 414.454C-0.284674 413.174 0.645513 414.106 0.465029 414.454C0.284546 414.802 -0.916365 414.35 1.42992 415.638Z" fill="#FFD037"/>
<path d="M6.99719 449.276C6.99719 449.276 23.2615 448.775 28.1624 445.274C33.0632 441.773 53.1524 437.618 54.395 443.186C55.6375 448.754 78.8366 471.104 60.4759 471.25C42.1152 471.396 17.8123 468.382 12.9184 465.396C8.02456 462.41 6.99719 449.276 6.99719 449.276Z" fill="#A8A8A8"/>
<path opacity="0.2" d="M60.8021 469.315C42.4414 469.461 18.1386 466.447 13.2447 463.461C9.51702 461.185 8.0315 453.021 7.53864 449.256H6.99719C6.99719 449.256 8.02456 462.41 12.9184 465.396C17.8123 468.382 42.1152 471.403 60.4759 471.25C65.7793 471.208 67.605 469.315 67.5078 466.517C66.772 468.229 64.752 469.287 60.8021 469.315Z" fill="black"/>
<path d="M681.923 399.545C683.195 398.506 684.122 397.102 684.581 395.522C684.929 393.922 684.248 392.008 682.721 391.423C681.013 390.769 679.188 391.952 677.806 393.156C676.425 394.36 674.835 395.724 673.024 395.467C673.954 394.62 674.651 393.546 675.046 392.35C675.44 391.154 675.518 389.875 675.273 388.639C675.194 388.127 674.978 387.646 674.648 387.247C673.697 386.231 671.982 386.669 670.844 387.469C667.234 390.017 666.228 394.931 666.207 399.358C665.846 397.764 666.151 396.1 666.137 394.485C666.124 392.871 665.679 391.005 664.305 390.156C663.452 389.697 662.495 389.469 661.528 389.495C659.904 389.432 658.099 389.599 656.988 390.79C655.6 392.265 655.968 394.75 657.169 396.358C658.37 397.966 660.188 399.003 661.868 400.13C663.214 400.933 664.363 402.03 665.228 403.339C665.33 403.52 665.413 403.712 665.478 403.91H675.648C677.926 402.745 680.037 401.277 681.923 399.545Z" fill="#A3B6FF"/>
<path opacity="0.1" d="M101.855 334.314C123.944 362.475 115.364 403.617 101.328 436.56C96.6282 447.592 91.3108 459.264 93.2962 471.09C95.7188 485.553 108.568 496.147 122.118 501.715C146.761 511.933 176.263 509.496 198.9 495.374C218.469 483.166 232.484 463.315 252.386 451.664C285.706 432.175 328.092 439.532 364.258 452.958C389.845 462.459 417.82 474.82 443.247 464.888C461.136 457.928 473.506 440.896 480.246 422.869C483.502 414.162 485.862 404.773 492.047 397.812C495.74 393.713 500.558 390.797 505.5 388.347C550.621 365.928 607.543 377.906 651.331 353.072C680.909 336.284 699.846 304.608 708.253 271.582C716.659 238.555 715.659 203.921 713.528 169.913C712.015 145.74 709.301 119.939 693.897 101.278C677.605 81.5461 649.637 74.2031 624.362 77.9547C599.088 81.7062 576.166 95.1395 556.035 110.884C530.844 130.56 507.485 155.067 476.553 163.044C455.492 168.473 433.334 165.501 411.607 164.477C375.288 162.758 338.962 166.565 302.845 170.742C268.268 174.751 233.428 179.163 200.503 190.439C177.193 198.422 158.506 212.907 136.494 223.027C122.146 229.625 106.499 231.449 92.9213 239.85C76.1849 250.2 60.8508 268.206 65.1546 289.268C69.1947 309.32 90.1238 319.371 101.855 334.314Z" fill="#6C63FF"/>
<path opacity="0.1" d="M383.424 334.3C547.383 334.3 680.298 321.499 680.298 305.708C680.298 289.916 547.383 277.115 383.424 277.115C219.464 277.115 86.5488 289.916 86.5488 305.708C86.5488 321.499 219.464 334.3 383.424 334.3Z" fill="#6C63FF"/>
<path opacity="0.1" d="M155.258 499.258C236.288 499.258 301.977 486.457 301.977 470.665C301.977 454.874 236.288 442.073 155.258 442.073C74.2266 442.073 8.53821 454.874 8.53821 470.665C8.53821 486.457 74.2266 499.258 155.258 499.258Z" fill="#6C63FF"/>
<path d="M305.239 296.792L302.914 300.181C302.914 300.181 305.448 303.571 305.691 303.995C305.934 304.42 313.084 303.787 313.084 303.787L313.715 301.246L312.66 298.281L305.239 296.792Z" fill="#4D4966"/>
<path d="M227.055 294.884L222.404 295.727L225.362 301.455L228.534 303.146L231.491 305.262L232.338 302.937L230.221 298.483L227.055 294.884Z" fill="#FDC2CC"/>
<path d="M303.129 239.794C303.129 239.794 327.855 245.724 332.499 252.323C332.499 252.323 336.727 255.928 332.499 262.491C328.272 269.055 322.358 283.894 322.358 283.894C322.358 283.894 318.13 298.302 316.443 299.36C314.757 300.418 305.031 301.267 304.184 297.272C304.184 297.272 309.675 288.585 309.675 284.555C309.675 280.525 318.762 261.461 318.762 261.461C318.762 261.461 298.055 259.13 291.502 260.612C284.949 262.095 294.466 237.462 303.129 239.794Z" fill="#565171"/>
<path opacity="0.1" d="M303.129 239.794C303.129 239.794 327.855 245.724 332.499 252.323C332.499 252.323 336.727 255.928 332.499 262.491C328.272 269.055 322.358 283.894 322.358 283.894C322.358 283.894 318.13 298.302 316.443 299.36C314.757 300.418 305.031 301.267 304.184 297.272C304.184 297.272 309.675 288.585 309.675 284.555C309.675 280.525 318.762 261.461 318.762 261.461C318.762 261.461 298.055 259.13 291.502 260.612C284.949 262.095 294.466 237.462 303.129 239.794Z" fill="black"/>
<path d="M298.055 245.515C298.006 246.747 297.874 248.133 297.687 249.622C296.333 260.41 291.925 276.454 291.925 276.454C291.925 276.454 287.49 285.989 286.219 292.135C284.949 298.281 276.286 299.791 276.286 299.791C276.286 299.791 252.615 302.576 247.755 301.49C242.896 300.404 235.26 304.671 231.484 304.03C227.708 303.39 225.355 294.495 225.355 294.495C231.909 294.533 238.395 293.161 244.375 290.472C254.093 286.024 268.046 288.14 268.046 288.14C269.087 287.837 270.055 287.324 270.89 286.632C271.726 285.94 272.412 285.084 272.905 284.117C274.384 280.936 274.384 261.656 273.96 260.383C271.184 252.03 271.413 246.671 272.211 243.546C272.478 242.181 273.079 240.904 273.96 239.829L298.055 245.515Z" fill="#565171"/>
<path opacity="0.1" d="M298.055 245.516C298.006 246.747 297.874 248.133 297.687 249.622C295.563 249.789 289.607 249.949 285.192 247.214C281.027 244.652 274.967 243.782 272.239 243.511C272.506 242.146 273.107 240.869 273.988 239.794L298.055 245.516Z" fill="black"/>
<path d="M300.977 242.864C299.992 245.648 298.478 248.912 298.478 248.912C298.478 248.912 290.662 249.97 285.164 246.58C279.666 243.191 270.795 242.766 270.795 242.766C272.232 241.882 273.204 239.196 273.808 236.843C274.145 235.513 274.409 234.165 274.599 232.806C274.599 232.806 300.589 238.103 301.671 238.952C302.074 239.286 301.644 240.97 300.977 242.864Z" fill="#E6E6F0"/>
<path d="M347.292 153.557L315.77 172.635L312.639 174.528V165.208L314.812 164.164L341.378 151.434C341.378 151.434 342.648 128.34 346.029 131.945C349.409 135.551 347.292 153.557 347.292 153.557Z" fill="#F8D49F"/>
<path opacity="0.1" d="M315.77 172.635L312.639 174.528V165.208L314.812 164.164C314.956 167.005 315.276 169.834 315.77 172.635Z" fill="black"/>
<path d="M291.509 176.045L314.118 162.911C314.118 162.911 314.541 175.628 317.075 177.528C317.075 177.528 307.78 180.312 304.184 186.214L291.509 176.045Z" fill="#264DE4"/>
<path d="M347.091 187.244C347.091 187.244 336.338 191.942 329.216 193.669C327.613 194.153 325.938 194.347 324.267 194.239C319.407 193.39 325.537 187.279 325.537 187.279L328.092 186.882L341.808 184.739C341.808 184.739 343.287 163.552 345.821 165.25C348.354 166.948 347.091 187.244 347.091 187.244Z" fill="#F8D49F"/>
<path d="M301.651 168.173C301.651 168.173 292.564 174.953 295.945 183.43C299.325 191.908 278.403 178.342 278.403 178.342C278.403 178.342 285.164 168.173 286.643 160.545C288.121 152.916 301.651 168.173 301.651 168.173Z" fill="#F8D49F"/>
<path opacity="0.1" d="M300.977 242.864C297.047 241.38 292.94 240.42 288.76 240.01C282.651 239.314 277.056 238.138 273.815 236.843C274.152 235.513 274.416 234.165 274.606 232.806C274.606 232.806 300.596 238.103 301.678 238.952C302.074 239.286 301.644 240.97 300.977 242.864Z" fill="black"/>
<path opacity="0.1" d="M329.209 193.669C327.606 194.153 325.931 194.347 324.26 194.239C319.401 193.39 325.53 187.279 325.53 187.279L328.085 186.882C329.154 188.532 330.243 191.107 329.209 193.669Z" fill="black"/>
<path d="M286.858 171.988C286.858 171.988 278.618 171.779 275.661 175.168C272.704 178.558 273.336 187.697 273.336 187.697C273.336 187.697 272.718 205.995 277.348 216.234C277.501 216.564 277.518 216.942 277.396 217.285C277.348 217.41 277.348 217.334 277.348 217.334C277.348 217.334 274.391 230.683 271.434 233.015C268.476 235.347 277.771 238.103 288.788 239.37C299.804 240.636 304.212 243.817 304.212 243.817C304.212 243.817 306.114 241.729 306.295 237.038C306.475 232.347 303.358 198.262 303.358 198.262C303.358 198.262 314.979 201.228 321.955 197.629C321.955 197.629 325.127 199.327 328.085 194.664C331.042 190.001 326.002 184.92 326.002 184.92C326.002 184.92 321.351 189.583 308.46 183.437C295.57 177.291 290.863 171.779 286.858 171.988Z" fill="#264DE4"/>
<path d="M223.675 295.309H221.141V298.914L223.675 304.636C223.675 304.636 227.055 305.269 227.27 305.269C227.486 305.269 230.228 304.636 230.228 304.636L231.075 303.153C231.075 303.153 221.773 299.541 223.675 295.309Z" fill="#E6E6F0"/>
<path d="M303.129 298.699L299.325 307.176L315.388 314.832L328.071 315.257C328.071 315.257 329.126 312.292 324.898 310.809L321.518 310.176C321.518 310.176 317.082 302.123 316.659 298.344C316.659 298.344 312.431 299.193 311.799 302.367C311.792 302.297 305.878 305.262 303.129 298.699Z" fill="#4D4966"/>
<path d="M221.773 294.46L220.482 295.518L214.803 300.181L227.902 317.582C227.902 317.582 235.295 320.763 238.683 317.582C238.683 317.582 240.765 315.494 236.149 313.768C236.149 313.768 232.553 314.401 232.553 310.802C232.553 307.204 233.4 303.39 234.636 302.541C234.636 302.541 231.463 301.483 230.623 302.332C229.977 303.046 229.409 303.828 228.93 304.664C228.93 304.664 221.349 301.664 221.773 294.46Z" fill="#B45181"/>
<path opacity="0.1" d="M286.226 160.969C286.012 162.044 285.728 163.105 285.379 164.143C286.477 166.791 288.561 168.905 291.188 170.037C293.816 171.169 296.779 171.23 299.45 170.206C300.007 169.629 300.603 169.092 301.234 168.598C301.234 168.598 287.705 153.341 286.226 160.969Z" fill="black"/>
<path opacity="0.1" d="M285.06 189.27C285.06 189.27 291.613 197.956 301.123 198.172L285.06 189.27Z" fill="black"/>
<g opacity="0.1">
<path opacity="0.1" d="M324.225 197.775C324.092 197.738 323.961 197.689 323.836 197.629C323.633 197.736 323.425 197.836 323.212 197.928C323.554 197.921 323.895 197.87 324.225 197.775Z" fill="black"/>
<path opacity="0.1" d="M326.474 185.79C326.244 185.494 325.999 185.21 325.738 184.941C325.738 184.941 324.35 186.333 320.921 186.597C322.81 186.785 324.716 186.508 326.474 185.79Z" fill="black"/>
<path opacity="0.1" d="M305.24 198.262L305.281 198.715C308.069 199.233 310.902 199.466 313.736 199.411C310.873 199.306 308.028 198.922 305.24 198.262Z" fill="black"/>
<path opacity="0.1" d="M290.662 239.384C279.673 238.11 270.378 235.361 273.308 233.029C276.237 230.697 279.222 217.347 279.222 217.347C279.222 217.347 279.222 217.424 279.271 217.299C279.392 216.956 279.375 216.578 279.222 216.248C274.592 205.981 275.21 187.711 275.21 187.711C275.21 187.711 274.578 178.6 277.535 175.182C279.736 172.656 284.866 172.134 287.344 172.029C287.113 172.011 286.881 172.011 286.65 172.029C286.65 172.029 278.41 171.821 275.453 175.21C272.496 178.6 273.127 187.739 273.127 187.739C273.127 187.739 272.509 206.037 277.14 216.276C277.292 216.606 277.31 216.983 277.188 217.327C277.14 217.452 277.14 217.375 277.14 217.375C277.14 217.375 274.203 230.683 271.218 233.015C268.233 235.347 277.556 238.103 288.573 239.37C299.589 240.636 303.997 243.817 303.997 243.817C304.218 243.551 304.413 243.265 304.58 242.961C302.435 241.924 298.02 240.219 290.662 239.384Z" fill="black"/>
</g>
<path d="M295.945 170.505C302.014 170.505 306.933 165.572 306.933 159.487C306.933 153.402 302.014 148.469 295.945 148.469C289.875 148.469 284.956 153.402 284.956 159.487C284.956 165.572 289.875 170.505 295.945 170.505Z" fill="#F8D49F"/>
<path opacity="0.1" d="M311.584 154.559C310.675 156.842 307.961 157.705 305.58 158.297C302.178 159.132 298.513 159.953 295.257 158.659C294.835 158.421 294.349 158.326 293.869 158.387C293.482 158.542 293.16 158.825 292.953 159.188C289.364 164.31 289.947 171.138 289.017 177.333C288.725 179.261 288.232 181.252 286.934 182.692C284.407 185.476 279.639 185.372 277.313 188.33C275.779 190.279 275.765 192.987 275.779 195.471C275.779 198.121 275.756 200.773 275.71 203.427C275.668 205.167 275.585 206.97 274.8 208.515C273.467 211.132 270.496 212.378 267.754 213.387C266.047 214.027 264.284 214.675 262.451 214.501C260.618 214.327 258.786 213.109 258.55 211.271C258.223 208.779 260.785 207.039 262.548 205.244C265.366 202.383 266.526 198.221 266.63 194.198C266.729 192.573 266.492 190.945 265.936 189.416C265.29 187.836 264.138 186.507 263.444 184.947C261.306 180.145 263.943 174.591 267.102 170.387C270.26 166.183 274.141 162.083 274.814 156.87C274.873 155.742 275.033 154.621 275.293 153.522C275.779 152.005 276.931 147.815 278.202 146.854C280.236 145.318 282.623 144.322 285.143 143.959C287.094 143.673 289.086 143.778 291.023 143.402C293.286 142.963 295.389 141.884 297.652 141.481C302.546 140.611 307.856 146.311 310.001 150.807C310.591 152.186 312.139 153.16 311.584 154.559Z" fill="black"/>
<path d="M311.584 154.134C310.675 156.417 307.961 157.281 305.58 157.872C302.178 158.707 298.513 159.529 295.257 158.234C294.835 157.997 294.349 157.901 293.869 157.963C293.482 158.118 293.16 158.4 292.953 158.763C289.364 163.886 289.947 170.714 289.017 176.908C288.725 178.836 288.232 180.827 286.934 182.268C284.407 185.052 279.639 184.947 277.313 187.906C275.779 189.854 275.765 192.562 275.779 195.047C275.779 197.697 275.756 200.348 275.71 203.002C275.668 204.742 275.585 206.545 274.8 208.09C273.467 210.707 270.496 211.953 267.754 212.962C266.047 213.603 264.284 214.25 262.451 214.076C260.618 213.902 258.786 212.684 258.55 210.847C258.223 208.355 260.785 206.615 262.548 204.819C265.366 201.958 266.526 197.796 266.63 193.773C266.729 192.149 266.492 190.521 265.936 188.991C265.29 187.411 264.138 186.082 263.444 184.523C261.306 179.72 263.943 174.166 267.102 169.962C270.26 165.758 274.141 161.659 274.814 156.445C274.873 155.317 275.033 154.196 275.293 153.097C275.779 151.58 276.931 147.39 278.202 146.43C280.236 144.893 282.623 143.897 285.143 143.534C287.094 143.249 289.086 143.353 291.023 142.977C293.286 142.539 295.389 141.46 297.652 141.056C302.546 140.186 307.856 145.887 310.001 150.383C310.591 151.761 312.139 152.735 311.584 154.134Z" fill="#5C3816"/>
<path d="M347.091 132.954H529.775V316.113H347.091V132.954Z" fill="#F7DF1E"/>
<path d="M395.134 286.017L409.115 277.533C411.815 282.328 414.266 286.386 420.152 286.386C425.796 286.386 429.35 284.173 429.35 275.57V217.041H446.517V275.806C446.517 293.632 436.104 301.747 420.888 301.747C407.157 301.747 399.188 294.613 395.141 286.01L395.134 286.017ZM455.839 284.166L469.813 276.05C473.492 282.078 478.275 286.49 486.737 286.49C493.852 286.49 498.385 282.927 498.385 278.006C498.385 272.104 493.727 270.015 485.89 266.57L481.6 264.726C469.216 259.443 460.997 252.803 460.997 238.785C460.997 225.874 470.806 216.039 486.133 216.039C497.045 216.039 504.875 219.853 510.533 229.806L497.17 238.416C494.227 233.126 491.041 231.038 486.133 231.038C481.107 231.038 477.914 234.233 477.914 238.416C477.914 243.58 481.1 245.669 488.458 248.856L492.748 250.701C507.326 256.965 515.559 263.361 515.559 277.748C515.559 293.242 503.418 301.726 487.098 301.726C471.132 301.726 460.858 294.07 455.86 284.145" fill="#303030"/>
<path d="M609.91 417.761C609.91 417.761 602.781 418.262 598.38 410.605C597.52 409.064 596.503 407.615 595.346 406.283C593.925 403.947 593.187 401.259 593.215 398.522C593.458 392.85 587.558 361.779 587.558 361.779C587.558 361.779 588.293 349.947 582.393 342.548C578.506 337.676 572.918 323.756 569.551 314.763C569.776 314.965 570.049 315.108 570.342 315.181L570.203 314.408H570.342L568.6 304.81C566.063 301.886 563.925 298.637 562.241 295.149L562.637 295.065L567.857 293.966C567.857 293.966 576.34 281.876 576.881 275.932H577.575H578.554C586.406 275.889 594.254 276.3 602.059 277.164C602.059 277.129 602.003 276.976 601.934 276.732C601.603 275.536 601.349 274.32 601.17 273.092H601.656L606.515 272.772C606.515 272.772 623.238 254.035 617.088 250.583C610.937 247.13 604.544 266.118 604.544 266.118L602.461 266.494L601.899 266.598C601.955 266.515 602.01 266.438 602.073 266.361C602.135 266.285 574.778 265.136 570.564 258.469C570.564 258.469 558.514 248.849 558.021 242.46C557.932 241.134 557.481 239.859 556.717 238.774C555.953 237.688 554.905 236.835 553.689 236.307C552.2 235.594 550.551 235.285 548.906 235.409L543.263 235.799L543.658 236.495H543.499C543.145 235.681 542.848 234.844 542.61 233.989H542.728C542.687 233.815 542.652 233.641 542.617 233.467C544.347 233.058 545.977 232.306 547.411 231.253C548.845 230.201 550.054 228.871 550.966 227.342C551.878 225.812 552.475 224.116 552.721 222.351C552.966 220.587 552.857 218.79 552.398 217.069C552.95 217.14 553.51 217.123 554.057 217.02C556.14 216.596 557.604 214.48 557.66 212.364C557.66 212.225 557.66 212.085 557.66 211.953C557.66 211.953 557.66 211.898 557.66 211.87C557.639 210.806 557.382 209.761 556.908 208.81C556.433 207.859 555.754 207.025 554.918 206.371C553.793 205.431 552.447 204.763 551.447 203.719C550.232 202.473 549.566 200.803 548.622 199.334C547.04 196.905 544.695 195.075 541.958 194.135C539.924 193.439 537.425 193.369 535.863 194.831C535.058 195.59 534.593 196.689 533.69 197.33C532.392 198.262 530.629 197.984 529.039 198.172C527.6 198.394 526.237 198.968 525.071 199.843C523.905 200.718 522.972 201.868 522.354 203.19C521.575 204.846 521.199 206.664 521.258 208.494C521.24 209.75 521.389 211.002 521.702 212.218C522.007 213.429 522.458 214.598 522.792 215.809C523.486 218.315 523.646 220.953 524.444 223.424C524.98 225.258 526.051 226.889 527.519 228.108L527.283 229.124C527.13 229.124 523.298 229.98 520.654 235.778C518.571 240.351 511.484 245.07 508.367 246.977C507.786 247.334 507.281 247.803 506.883 248.357C506.485 248.912 506.201 249.541 506.048 250.207C505.749 251.551 505.616 252.929 505.653 254.306C505.597 257.278 506.215 261.392 508.596 266.605C514.004 278.437 517.939 283.616 517.939 283.616C517.939 283.616 518.238 287.242 518.259 291.063C518.259 293.91 518.051 296.743 517.447 298.163C516.933 299.36 516.752 302.415 516.794 305.909C516.794 312.605 517.447 321.34 517.447 321.34C517.447 321.34 519.328 321.702 522.236 322.127L524.048 354.088C524.276 357.959 523.036 361.772 520.577 364.765C519.306 366.339 517.839 367.743 516.211 368.941C511.046 372.637 499.981 411.601 499.981 411.601C499.981 411.601 500.523 411.601 501.411 411.705L498.01 421.22C498.01 421.22 511.602 431.66 519.869 428.806C520.765 428.514 521.705 428.382 522.646 428.417C524.277 428.417 527.769 427.122 525.825 425.417C522.072 421.951 518.532 418.26 515.225 414.364C515.491 414.494 515.747 414.646 515.989 414.816V414.74L516.107 414.816C516.107 414.816 516.107 414.434 516.197 413.807L516.079 413.765C516.329 411.204 517.12 404.717 518.689 403.965C520.654 402.977 535.169 374.127 535.169 374.127L549.677 336.646C549.677 336.646 561.235 356.622 571.071 360.067V368.419C571.071 368.419 576.479 393.08 578.45 395.787C580.422 398.495 578.45 409.346 578.45 409.346C578.839 409.792 579.284 410.185 579.776 410.515L578.2 419.452C578.2 419.452 589.515 418.958 608.695 424.874C608.681 424.909 616.06 421.707 609.91 417.761ZM564.664 288.801L562.269 289.4L561.797 289.518C561.748 289.219 561.714 289.045 561.714 289.045C561.164 289.293 560.573 289.437 559.971 289.469C559.122 286.773 558.632 283.976 558.514 281.152C557.708 277.771 557.218 274.323 557.049 270.851C557.049 269.055 557.347 267.489 558.021 266.605L558.819 266.668L559.374 267.197L559.416 267.231L559.701 267.489L559.999 267.753L560.048 267.795L560.367 268.081L560.423 268.129L560.749 268.408L561.117 268.714L561.2 268.784L561.589 269.097L561.971 269.403L562.061 269.473L562.484 269.793L562.574 269.855L562.977 270.155L563.046 270.203L563.505 270.531L563.616 270.607L564.102 270.941H564.143L564.615 271.254L564.726 271.331L565.233 271.658L565.344 271.728L565.816 272.02L565.906 272.076L566.448 272.396L566.58 272.473L567.142 272.786H567.184L567.732 273.078L567.864 273.148L568.447 273.44L568.565 273.496L569.107 273.746L569.211 273.795L569.822 274.059L569.967 274.122L570.599 274.38C566.677 278.709 564.664 288.801 564.664 288.801Z" fill="url(#paint0_linear_1_15)"/>
<path d="M504.008 405.845L499.447 418.603C499.447 418.603 511.942 428.208 520.064 426.217C521.288 425.912 522.534 425.709 523.791 425.612C525.471 425.486 528.366 424.254 526.568 422.695C520.806 417.642 513.122 408.253 513.122 408.253L504.008 405.845Z" fill="#4F4D59"/>
<path d="M579.873 404.64L577.714 416.918C577.714 416.918 588.759 416.438 607.487 422.215C607.487 422.215 614.693 419.083 608.688 415.255C608.688 415.255 601.746 415.735 597.408 408.295C593.069 400.854 590.466 401.794 590.466 401.794L579.873 404.64Z" fill="#4F4D59"/>
<path d="M522.715 315.577L524.798 352.94C525.026 356.921 523.71 360.836 521.126 363.867C519.958 365.259 518.627 366.505 517.162 367.577C512.122 371.19 501.314 409.22 501.314 409.22C501.314 409.22 513.559 409.916 516.919 412.352C516.919 412.352 517.613 402.726 519.557 401.759C521.501 400.791 535.641 372.63 535.641 372.63L549.809 336.04C549.809 336.04 561.089 355.529 570.696 358.912V367.097C570.696 367.097 575.979 391.172 577.902 393.817C579.825 396.462 577.902 407.042 577.902 407.042C577.902 407.042 583.455 414.002 596.144 406.561C596.144 406.561 592.063 401.989 592.306 396.448C592.549 390.908 586.752 360.582 586.752 360.582C586.752 360.582 587.447 349.028 581.713 341.789C575.979 334.551 566.448 306.898 566.448 306.898L559.84 292.643L522.715 315.577Z" fill="#424242"/>
<g opacity="0.1">
<path opacity="0.1" d="M503.647 409.213C503.647 409.213 514.448 371.183 519.494 367.57C521.042 366.432 522.442 365.104 523.659 363.617C526.123 360.627 527.363 356.811 527.13 352.94L525.013 315.57L560.416 293.687L559.937 292.65L522.854 315.577L524.971 352.947C525.205 356.818 523.964 360.634 521.501 363.624C520.283 365.111 518.884 366.439 517.336 367.577C512.303 371.183 501.488 409.213 501.488 409.213C501.488 409.213 513.733 409.909 517.093 412.345C517.093 412.345 517.093 411.97 517.183 411.364C512.456 409.735 503.647 409.213 503.647 409.213Z" fill="black"/>
<path opacity="0.1" d="M580.234 407.049C580.234 407.049 582.157 396.455 580.234 393.824C578.311 391.193 573.029 367.104 573.029 367.104V358.905C563.428 355.536 552.141 336.033 552.141 336.033L551.308 338.219C554.564 343.397 563.248 356.246 570.877 358.919V367.104C570.877 367.104 576.159 391.179 578.082 393.824C580.005 396.469 578.082 407.049 578.082 407.049C578.082 407.049 580.762 410.431 586.676 409.972C582.254 409.603 580.234 407.049 580.234 407.049Z" fill="black"/>
</g>
<path d="M605.321 273.691L600.608 274.004L598.123 274.171V268.15L601.385 267.559L603.405 267.19C603.405 267.19 609.653 248.655 615.651 252.023C621.648 255.392 605.321 273.691 605.321 273.691Z" fill="#714B4F"/>
<path d="M529.699 224.071C529.699 224.071 526.575 236.105 525.617 243.56C524.659 251.014 547.941 245.007 547.941 245.007C547.941 245.007 539.056 234.177 544.103 228.4L529.699 224.071Z" fill="#F8D49F"/>
<path d="M554.904 274.185L555.383 278.758L547.941 278.277L540.5 271.776L533.058 250.826L528.269 243.358L524.666 238.785L526.11 233.217C526.11 233.217 526.769 233.794 527.88 234.644C531.538 237.428 540.111 243.281 546.38 241.666C546.669 241.593 546.954 241.502 547.233 241.395L556.598 257.522L554.904 274.185Z" fill="white"/>
<path opacity="0.1" d="M528.019 231.804C528.019 231.804 524.18 232.5 521.535 238.305C519.508 242.745 512.65 247.353 509.589 249.211C509.005 249.569 508.498 250.04 508.098 250.597C507.699 251.154 507.415 251.786 507.263 252.455C506.645 255.197 506.409 260.313 509.769 267.67C515.052 279.224 518.89 284.277 518.89 284.277C518.89 284.277 519.848 295.831 518.411 299.2C516.975 302.569 518.411 321.104 518.411 321.104C518.411 321.104 543.617 325.92 552.023 321.104C560.429 316.287 559.229 297.752 559.229 297.752C559.229 297.752 567.149 314.603 570.03 315.083L568.35 305.694C568.35 305.694 558.986 295.581 558.507 282.586C558.507 282.586 555.626 270.788 558.028 267.663C558.028 267.663 598.602 271.032 601.004 268.143C601.004 268.143 574.354 266.939 570.273 260.438C570.273 260.438 558.507 251.049 558.028 244.792C557.958 243.617 557.59 242.479 556.96 241.487C556.33 240.494 555.457 239.679 554.425 239.119C552.792 238.188 550.918 237.768 549.045 237.915L543.624 238.291C543.624 238.291 552.988 254.898 552.509 257.083C552.03 259.269 552.988 276.823 552.988 276.823C552.988 276.823 542.152 253.471 537.383 250.826C532.614 248.181 527.054 237.295 527.054 237.295L528.012 231.797" fill="black"/>
<path opacity="0.1" d="M554.904 274.185L555.383 278.758L547.941 278.277L540.5 271.776L533.058 250.826L528.269 243.358L524.666 238.785L526.11 233.217C526.11 233.217 526.769 233.794 527.88 234.644L527.547 236.544C527.547 236.544 533.1 247.416 537.869 250.067C542.638 252.719 553.474 276.064 553.474 276.064C553.474 276.064 552.516 258.489 552.995 256.325C553.321 254.856 549.115 246.74 546.38 241.666C546.669 241.593 546.954 241.502 547.233 241.395L556.598 257.522L554.904 274.185Z" fill="black"/>
<path opacity="0.1" d="M600.608 274.004L598.123 274.171V268.15L601.385 267.559C600.247 269.069 600.289 271.742 600.608 274.004Z" fill="black"/>
<path d="M528.019 231.087C528.019 231.087 524.18 231.783 521.535 237.588C519.508 242.028 512.65 246.636 509.589 248.494C509.005 248.852 508.498 249.323 508.098 249.88C507.699 250.437 507.415 251.069 507.263 251.738C506.645 254.48 506.409 259.596 509.769 266.953C515.052 278.507 518.89 283.56 518.89 283.56C518.89 283.56 519.848 295.114 518.411 298.483C516.975 301.852 518.411 320.387 518.411 320.387C518.411 320.387 543.617 325.203 552.023 320.387C560.429 315.57 559.229 297.035 559.229 297.035C559.229 297.035 567.142 313.858 570.03 314.373L568.35 304.984C568.35 304.984 558.986 294.871 558.507 281.876C558.507 281.876 555.626 270.078 558.028 266.953C558.028 266.953 567.392 277.066 577.957 276.823C585.656 276.776 593.351 277.178 601.004 278.027C601.004 278.027 598.602 270.322 601.004 267.433C601.004 267.433 574.354 266.229 570.273 259.728C570.273 259.728 558.507 250.339 558.028 244.082C557.958 242.907 557.59 241.769 556.96 240.777C556.33 239.784 555.457 238.969 554.425 238.409C552.792 237.478 550.918 237.058 549.045 237.205L543.624 237.581C543.624 237.581 552.988 254.188 552.509 256.373C552.03 258.559 552.988 276.113 552.988 276.113C552.988 276.113 542.152 252.747 537.383 250.102C532.614 247.457 527.054 236.599 527.054 236.599L528.012 231.101" fill="#27409D"/>
<path opacity="0.1" d="M522.715 256.359C522.715 256.359 528.477 275.848 531.837 278.263C535.197 280.679 555.605 292.949 561.61 290.061C561.61 290.061 563.053 297.286 560.915 298.97C560.915 298.97 538.529 298.093 538.348 298.01C538.348 298.01 523.701 296.082 521.299 288.864C518.897 281.646 516.017 269.375 516.017 269.375L522.715 256.359Z" fill="black"/>
<path d="M553.467 278.389C553.931 278.389 554.307 277.849 554.307 277.185C554.307 276.52 553.931 275.98 553.467 275.98C553.003 275.98 552.627 276.52 552.627 277.185C552.627 277.849 553.003 278.389 553.467 278.389Z" fill="#BA7855"/>
<path d="M555.862 286.811C556.326 286.811 556.702 286.271 556.702 285.606C556.702 284.942 556.326 284.402 555.862 284.402C555.398 284.402 555.022 284.942 555.022 285.606C555.022 286.271 555.398 286.811 555.862 286.811Z" fill="#BA7855"/>
<g opacity="0.1">
<path opacity="0.1" d="M520.098 320.122C520.098 320.122 518.654 301.587 520.098 298.218C521.542 294.85 520.577 283.296 520.577 283.296C520.577 283.296 516.739 278.243 511.456 266.689C508.089 259.332 508.332 254.216 508.95 251.473C509.102 250.805 509.386 250.173 509.785 249.616C510.185 249.059 510.692 248.588 511.275 248.23C514.337 246.351 521.188 241.764 523.222 237.323C524.715 234.066 526.582 232.416 527.929 231.595L528.019 231.066C528.019 231.066 524.18 231.762 521.535 237.567C519.508 242.008 512.65 246.615 509.589 248.474C509.005 248.831 508.498 249.303 508.098 249.859C507.699 250.416 507.415 251.048 507.263 251.717C506.645 254.459 506.409 259.575 509.769 266.932C515.052 278.486 518.89 283.539 518.89 283.539C518.89 283.539 519.848 295.093 518.411 298.462C516.975 301.831 518.411 320.366 518.411 320.366C518.411 320.366 536.418 323.804 547.067 321.96C536.314 323.247 520.098 320.122 520.098 320.122Z" fill="black"/>
<path opacity="0.1" d="M552.502 256.36C552.176 257.842 552.502 266.563 552.773 271.909C553.932 274.282 554.661 275.862 554.661 275.862C554.661 275.862 553.703 258.288 554.182 256.123C554.64 254.035 546.206 238.959 545.366 237.469L543.617 237.588C543.617 237.588 552.988 254.195 552.502 256.36Z" fill="black"/>
<path opacity="0.1" d="M579.637 276.579C569.072 276.823 559.708 266.709 559.708 266.709C559.426 267.101 559.222 267.543 559.104 268.011C561.88 270.6 569.516 277.011 577.957 276.816C585.656 276.769 593.351 277.171 601.004 278.02C601.004 278.02 600.955 277.86 600.879 277.588C593.822 276.857 586.731 276.52 579.637 276.579Z" fill="black"/>
<path opacity="0.1" d="M560.895 296.799C560.895 296.799 560.992 298.302 560.936 300.557C563.435 305.527 567.982 314.025 570.016 314.366L569.662 312.389C566.17 307.991 560.895 296.799 560.895 296.799Z" fill="black"/>
</g>
<path d="M567.628 294.369L562.526 295.448L558.5 296.297L560.659 290.277L562.165 289.901L564.504 289.316C564.504 289.316 567.864 272.466 574.591 273.67C581.317 274.874 567.628 294.369 567.628 294.369Z" fill="#F8D49F"/>
<path opacity="0.1" d="M562.533 295.469L558.507 296.318L560.666 290.298L562.172 289.922C562.506 291.751 562.627 293.612 562.533 295.469Z" fill="black"/>
<path d="M522.715 255.879C522.715 255.879 528.477 275.368 531.837 277.783C535.197 280.198 555.605 292.469 561.61 289.581C561.61 289.581 563.053 296.805 560.915 298.49C560.915 298.49 538.529 297.613 538.348 297.529C538.348 297.529 523.701 295.601 521.299 288.384C518.897 281.166 516.017 268.895 516.017 268.895L522.715 255.879Z" fill="#27409D"/>
<path opacity="0.1" d="M529.935 224.586C529.935 224.586 529.449 226.472 528.796 229.215C530.126 231.74 532.247 233.755 534.833 234.951C537.419 236.146 540.325 236.454 543.103 235.827C542.527 233.356 542.652 230.857 544.339 228.922L529.935 224.586Z" fill="black"/>
<path d="M540.021 235.66C547.183 235.66 552.988 229.839 552.988 222.658C552.988 215.477 547.183 209.656 540.021 209.656C532.859 209.656 527.054 215.477 527.054 222.658C527.054 229.839 532.859 235.66 540.021 235.66Z" fill="#F8D49F"/>
<path opacity="0.1" d="M551.28 219.081C552.22 219.344 553.203 219.405 554.168 219.261C555.167 218.99 556.051 218.4 556.684 217.58C557.318 216.759 557.668 215.754 557.681 214.716C557.663 213.679 557.413 212.658 556.95 211.73C556.488 210.801 555.824 209.988 555.008 209.35C553.911 208.431 552.599 207.784 551.593 206.761C550.406 205.543 549.753 203.914 548.816 202.48C547.272 200.11 544.984 198.324 542.312 197.406C540.326 196.71 537.89 196.655 536.363 198.102C535.578 198.847 535.12 199.912 534.246 200.545C532.975 201.45 531.254 201.186 529.706 201.367C528.303 201.58 526.975 202.137 525.836 202.986C524.699 203.836 523.786 204.953 523.18 206.239C521.996 208.861 521.77 211.818 522.542 214.591C522.84 215.774 523.285 216.916 523.604 218.071C524.298 220.521 524.437 223.09 525.214 225.505C525.992 227.92 527.595 230.287 530.025 231.01C529.833 228.299 530.368 225.586 531.573 223.152C531.772 222.62 532.163 222.183 532.67 221.927C533.102 221.816 533.556 221.816 533.989 221.927C537.033 222.379 540.14 221.748 542.77 220.145C543.693 219.589 545.13 217.668 546.109 217.48C547.372 217.264 549.961 218.788 551.28 219.081Z" fill="black"/>
<path d="M551.28 218.6C552.22 218.863 553.203 218.925 554.168 218.781C555.167 218.51 556.051 217.919 556.684 217.1C557.318 216.279 557.668 215.274 557.681 214.236C557.663 213.198 557.413 212.178 556.95 211.249C556.488 210.321 555.824 209.508 555.008 208.87C553.911 207.951 552.599 207.304 551.593 206.281C550.406 205.063 549.753 203.434 548.816 202C547.272 199.629 544.984 197.843 542.312 196.926C540.326 196.23 537.89 196.174 536.363 197.622C535.578 198.367 535.12 199.432 534.246 200.065C532.975 200.97 531.254 200.705 529.706 200.886C528.303 201.1 526.975 201.656 525.836 202.506C524.699 203.355 523.786 204.472 523.18 205.759C521.996 208.381 521.77 211.338 522.542 214.111C522.84 215.294 523.285 216.436 523.604 217.591C524.298 220.041 524.437 222.609 525.214 225.024C525.992 227.44 527.595 229.806 530.025 230.53C529.839 227.82 530.378 225.11 531.587 222.679C531.785 222.146 532.177 221.709 532.684 221.454C533.116 221.343 533.57 221.343 534.003 221.454C537.047 221.906 540.154 221.275 542.784 219.672C543.707 219.115 545.144 217.194 546.123 217.006C547.372 216.784 549.961 218.308 551.28 218.6Z" fill="#60595B"/>
<path d="M680.639 175.69L670.059 294.502L622.509 307.726L575.09 294.502L564.525 175.69H680.639Z" fill="#E44D26"/>
<path d="M622.578 297.62L661.001 286.943L670.025 185.407H622.578V297.62Z" fill="#F16529"/>
<path d="M602.017 214.556H622.578V199.982H586.135L586.482 203.893L590.057 244.054H622.585V229.479H603.35L602.017 214.556ZM605.321 251.341H590.744L592.778 274.226L622.516 282.537H622.585V267.329H622.523L606.335 262.944L605.321 251.341Z" fill="#EBEBEB"/>
<path d="M575.333 143.395H582.719V150.71H589.473V143.395H596.859V165.556H589.473V158.137H582.719V165.556H575.333V143.395ZM606.571 150.745H600.066V143.395H620.461V150.745H613.957V165.556H606.578V150.745H606.571ZM623.703 143.395H631.408L636.149 151.183L640.884 143.395H648.589V165.556H641.231V154.573L636.149 162.452H636.024L630.936 154.573V165.556H623.703V143.395ZM652.261 143.395H659.647V158.227H670.059V165.549H652.282V143.395H652.261Z" fill="#303030"/>
<path d="M622.53 244.054H640.425L638.739 262.958L622.53 267.343V282.537L652.33 274.254L652.546 271.79L655.961 233.419L656.315 229.507H622.53V244.082V244.054ZM622.53 214.522V214.556H657.641L657.932 211.278L658.627 203.886L658.974 199.975H622.53V214.515V214.522Z" fill="white"/>
<path d="M254.572 263.403C253.219 259.429 251.268 254.355 249.713 253.2C249.619 253.124 249.517 253.061 249.408 253.012H249.213V248.105L245.562 248.689C244.976 246.916 244.532 245.098 244.236 243.253C244.588 243.606 245.036 243.847 245.524 243.945C246.012 244.043 246.518 243.993 246.978 243.803C246.916 243.706 246.867 243.601 246.811 243.497L246.978 243.427C246.403 242.411 246.1 241.262 246.096 240.093C246.127 239.027 246.297 237.969 246.603 236.947C247.256 234.685 248.359 232.569 248.977 230.3C249.372 228.835 249.559 227.321 249.533 225.804C249.551 223.233 248.966 220.694 247.825 218.391C247.542 217.729 247.098 217.147 246.534 216.7C246.02 216.415 245.492 216.157 244.951 215.928C244.046 215.316 243.266 214.536 242.653 213.631C240.06 210.465 236.588 208.142 232.678 206.956C231.66 206.576 230.557 206.49 229.492 206.705C227.042 207.401 226.146 210.415 224.161 212.009C222.404 213.401 219.996 213.561 217.802 214.034C215.55 214.419 213.477 215.508 211.881 217.146C210.843 218.335 210.277 219.866 210.291 221.447C210.232 222.185 210.361 222.925 210.669 223.598C210.976 224.271 211.451 224.853 212.047 225.289C212.726 225.737 213.495 226.028 214.299 226.142C215.103 226.257 215.922 226.191 216.698 225.95C216.092 228.049 215.925 230.252 216.208 232.419C216.491 234.586 217.217 236.671 218.341 238.543C219.466 240.416 220.964 242.035 222.742 243.299C224.52 244.564 226.539 245.447 228.673 245.891L229.103 246.657C230.416 249.112 231.412 251.725 232.067 254.432C228.708 256.346 225.035 258.134 222.821 258.301C222.733 259.169 222.573 260.028 222.342 260.87C221.825 262.982 220.829 264.947 219.433 266.612C216.421 270.009 202.864 295.692 202.864 295.692C202.864 295.692 202.433 296.715 201.739 298.476C193.319 299.513 179.581 301.009 175.743 300.237L160.679 285.885C160.679 285.885 155.82 289.609 156.236 294.133L153.522 291.544C153.522 291.544 139.208 302.492 161.811 309.64L196.2 313.642C192.923 323.554 189.869 335.087 190.813 341.365H191.098C191.756 341.364 192.412 341.313 193.062 341.212L193 342.325L189.688 401.787C189.688 401.787 188.932 412.735 199.101 417.649C199.101 417.649 211.534 454.281 206.633 458.436C206.633 458.436 207.216 458.742 208.195 459.174L197.97 468.222C197.97 468.222 190.438 470.108 186.294 469.733C185.566 469.633 184.826 469.806 184.217 470.218C183.607 470.63 183.171 471.253 182.99 471.967C182.99 472.043 182.99 472.12 182.948 472.203V472.301C182.948 472.378 182.948 472.461 182.948 472.545C182.948 472.628 182.948 472.607 182.948 472.635C182.948 472.663 182.948 472.774 182.948 472.844V472.934C182.948 473.018 182.948 473.094 182.997 473.178V473.268C183.019 473.357 183.047 473.442 183.08 473.526V473.609C183.115 473.693 183.156 473.777 183.198 473.86V473.916C183.246 473.999 183.295 474.083 183.351 474.166L183.399 474.236C183.46 474.324 183.526 474.412 183.6 474.5L183.656 474.57C183.732 474.66 183.816 474.744 183.906 474.835H183.948L184.225 475.071L184.288 475.12L184.628 475.363L184.711 475.419L185.107 475.649H185.169L185.593 475.858H185.655L186.148 476.059L186.252 476.101L186.801 476.282H186.891L187.481 476.435H187.529L188.224 476.568H188.356L189.05 476.672H189.182L189.98 476.749C191.528 476.867 193.617 476.909 196.033 476.902C196.033 476.902 196.033 476.964 196.033 476.992C196.033 477.02 196.033 477.131 196.033 477.201V477.291C196.033 477.375 196.033 477.452 196.082 477.535V477.626C196.105 477.714 196.132 477.8 196.165 477.883V477.967C196.2 478.05 196.241 478.134 196.283 478.217V478.273C196.332 478.356 196.38 478.44 196.436 478.523L196.484 478.593C196.545 478.681 196.611 478.769 196.686 478.857L196.741 478.927C196.817 479.018 196.901 479.101 196.991 479.192H197.026L197.303 479.428L197.366 479.477L197.706 479.721L197.789 479.776L198.178 480.006H198.24L198.664 480.215H198.726L199.219 480.417L199.323 480.458L199.872 480.639H199.962L200.552 480.792H200.601L201.295 480.925H201.427L202.121 481.029H202.253L203.051 481.106C212.846 481.864 244.104 479.595 244.104 479.595V479.505V479.393C244.417 477.932 245.916 469.433 240.585 463.148C240.744 462.981 240.897 462.807 241.043 462.626C241.043 462.626 236.878 455.45 239.162 453.188C241.446 450.926 228.131 411.997 228.131 411.997C228.131 411.997 220.974 400.666 225.119 387.825C229.263 374.983 224.744 361.014 224.744 361.014C224.744 361.014 234.636 358.076 234.816 345.875C234.816 345.506 234.816 345.123 234.816 344.741C235.023 344.771 235.232 344.785 235.441 344.782C235.58 344.792 235.719 344.792 235.857 344.782C235.857 344.782 233.976 337.982 236.232 333.075C238.488 328.168 243.389 332.699 247.908 312.682C251.178 298.198 254.052 281.542 255.398 273.433C255.952 270.073 255.668 266.627 254.572 263.403ZM168.62 305.861L165.184 302.589C166.323 303.063 167.586 303.522 168.995 303.982L181.941 305.506C176.166 306.028 170.772 306.32 168.62 305.882V305.861Z" fill="url(#paint1_linear_1_15)"/>
<path d="M201.406 303.954C201.406 303.954 174.764 307.663 169.21 306.55L154.411 292.448C154.411 292.448 140.347 303.209 162.553 310.26L203.995 315.083L201.406 303.954Z" fill="#F8D49F"/>
<path opacity="0.05" d="M201.406 303.954C201.406 303.954 174.764 307.663 169.21 306.55L154.411 292.448C154.411 292.448 140.347 303.209 162.553 310.26L203.995 315.083L201.406 303.954Z" fill="black"/>
<path d="M149.253 313.315L91.6787 297.307L78.8505 153.021H219.829L206.987 297.286L149.253 313.315Z" fill="#264DE4"/>
<path d="M195.991 288.105L206.966 164.825H149.35V301.044L195.991 288.105Z" fill="#2965F1"/>
<path d="M108.297 218.315L109.88 236.008H149.378V218.315H108.297ZM105.118 182.497L106.721 200.19H149.371V182.497H105.083H105.118ZM149.371 264.273H149.295L129.636 258.949L128.379 244.833H110.63L113.101 272.619L149.253 282.704H149.336L149.371 264.273Z" fill="#EBEBEB"/>
<path d="M112.032 113.793H133.405V122.758H120.966V131.723H133.405V140.687H112.032V113.793ZM137.716 113.793H159.089V121.588H146.622V123.148H159.062V141.077H137.681V132.892H150.121V131.333H137.681V113.793H137.716ZM163.4 113.793H184.774V121.588H172.272V123.148H184.711V141.077H163.331V132.892H175.77V131.333H163.331V113.793H163.4Z" fill="#303030"/>
<path d="M190.306 218.315L193.492 182.497H149.253V200.19H174.125L172.522 218.287H149.253V235.98H170.987L168.905 258.949L149.253 264.287V282.697L185.433 272.639L185.697 269.647L189.862 223.055L190.292 218.301L190.306 218.315Z" fill="white"/>
<path d="M211.034 454.587L198.081 466.085C198.081 466.085 190.681 467.944 186.613 467.568C182.545 467.192 180.692 473.874 190.313 474.619C199.934 475.363 230.644 473.136 230.644 473.136C230.644 473.136 233.601 461.262 224.723 454.587H211.034Z" fill="#47465A"/>
<path opacity="0.05" d="M211.034 454.587L198.081 466.085C198.081 466.085 190.681 467.944 186.613 467.568C182.545 467.192 180.692 473.874 190.313 474.619C199.934 475.363 230.644 473.136 230.644 473.136C230.644 473.136 233.601 461.262 224.723 454.587H211.034Z" fill="black"/>
<path opacity="0.3" d="M231.102 468.006C231.08 469.36 230.925 470.707 230.637 472.029C230.637 472.029 199.927 474.257 190.306 473.512C185.676 473.157 183.712 471.424 183.364 469.767C182.941 471.674 184.621 474.187 190.306 474.64C199.927 475.384 230.637 473.157 230.637 473.157C230.999 471.465 231.155 469.736 231.102 468.006Z" fill="white"/>
<path d="M226.195 244.256C226.195 244.256 234.337 255.754 231.373 263.549C228.409 271.345 246.915 255.385 246.915 255.385C246.915 255.385 240.994 244.952 243.958 233.815L226.195 244.256Z" fill="#F8D49F"/>
<path d="M223.973 459.042L211.034 470.54C211.034 470.54 203.634 472.398 199.566 472.023C195.499 471.647 193.645 478.328 203.266 479.073C212.887 479.818 243.597 477.591 243.597 477.591C243.597 477.591 246.555 465.717 237.676 459.042H223.973Z" fill="#47465A"/>
<path d="M227.694 456.445C225.764 458.833 223.043 459.752 220.197 459.891C213.727 460.197 206.605 456.445 206.605 456.445C211.416 452.367 199.205 416.375 199.205 416.375C189.216 411.552 189.952 400.791 189.952 400.791L193.187 342.395L194.006 327.723L204.37 321.417L212.533 327.681L220.28 333.639C220.785 335.534 221.11 337.473 221.252 339.43C222.155 353.065 211.402 356.274 211.402 356.274C211.402 356.274 215.845 369.999 211.77 382.618C207.695 395.237 214.727 406.367 214.727 406.367C214.727 406.367 228.048 444.954 225.834 447.181C223.619 449.409 227.694 456.445 227.694 456.445Z" fill="#565171"/>
<path opacity="0.05" d="M227.694 456.445C225.764 458.833 223.043 459.752 220.197 459.891C213.727 460.197 206.605 456.445 206.605 456.445C211.416 452.367 199.205 416.375 199.205 416.375C189.216 411.552 189.952 400.791 189.952 400.791L193.187 342.395L194.006 327.723L204.37 321.417L212.533 327.681L220.28 333.639C220.785 335.534 221.11 337.473 221.252 339.43C222.155 353.065 211.402 356.274 211.402 356.274C211.402 356.274 215.845 369.999 211.77 382.618C207.695 395.237 214.727 406.367 214.727 406.367C214.727 406.367 228.048 444.954 225.834 447.181C223.619 449.409 227.694 456.445 227.694 456.445Z" fill="black"/>
<path d="M240.626 460.893C234.337 468.682 219.538 460.893 219.538 460.893C219.835 460.618 220.058 460.27 220.183 459.884C222.897 452.485 211.027 417.113 211.027 417.113C201.038 412.29 199.92 400.791 199.92 400.791L197.303 341.337L196.963 333.639L212.533 327.681L217.316 325.851L233.247 338.094C233.931 340.63 234.268 343.248 234.247 345.875C234.046 357.854 224.348 360.749 224.348 360.749C224.348 360.749 228.791 374.475 224.716 387.094C220.641 399.713 227.694 410.807 227.694 410.807C227.694 410.807 241.015 449.395 238.801 451.622C236.586 453.849 240.626 460.893 240.626 460.893Z" fill="#565171"/>
<path opacity="0.1" d="M234.247 345.875C231.047 345.416 224.57 341.553 221.245 339.458C219.975 338.657 219.163 338.121 219.163 338.121C219.163 338.121 215.831 328.843 206.952 335.894C204.064 338.246 200.803 340.095 197.303 341.365C195.967 341.84 194.588 342.187 193.187 342.402L194.006 327.73L204.37 321.424L212.533 327.688L217.316 325.858L233.247 338.094C233.931 340.63 234.268 343.248 234.247 345.875Z" fill="black"/>
<path d="M254.274 274.679C252.955 282.641 250.109 299.04 246.916 313.232C242.473 332.894 237.662 328.44 235.448 333.263C233.233 338.087 235.08 344.761 235.08 344.761C231.38 345.13 219.17 336.973 219.17 336.973C219.17 336.973 215.838 327.695 206.959 334.746C198.081 341.796 191.049 341.421 191.049 341.421C189.195 329.178 202.891 296.527 202.891 296.527C202.891 296.527 216.212 271.296 219.17 267.99C220.542 266.356 221.52 264.426 222.03 262.352C222.257 261.527 222.415 260.685 222.502 259.833C227.312 259.464 239.162 251.299 239.162 251.299L248.415 249.817V254.64C248.525 254.69 248.627 254.752 248.72 254.828C250.241 255.991 252.191 260.946 253.489 264.851C254.552 268.012 254.821 271.388 254.274 274.679Z" fill="#27409D"/>
<path d="M211.034 309.522L206.251 308.965L169.592 304.698C147.379 297.648 161.45 286.887 161.45 286.887L176.249 300.989C180.518 301.845 197.269 299.847 204.773 298.9C207.022 298.608 208.445 298.413 208.445 298.413L211.034 309.522Z" fill="#F8D49F"/>
<path opacity="0.1" d="M246.916 259.436C246.916 259.436 237.294 251.647 222.835 276.871C208.375 302.095 205.071 298.017 205.071 298.017C205.071 298.017 208.028 309.153 206.55 311.373C206.55 311.373 216.539 310.628 220.239 311.373C223.939 312.118 246.881 283.177 246.881 283.177C246.881 283.177 258.758 266.856 246.916 259.436Z" fill="black"/>
<path opacity="0.1" d="M246.548 257.953C246.548 257.953 236.926 250.165 222.495 275.389C208.063 300.613 204.731 296.534 204.731 296.534C204.731 296.534 216.199 309.146 219.898 309.891C223.598 310.635 246.541 281.695 246.541 281.695C246.541 281.695 258.39 265.373 246.548 257.953Z" fill="black"/>
<path opacity="0.1" d="M206.244 308.986C206.397 306.237 205.363 301.406 204.766 298.9C207.015 298.608 208.438 298.413 208.438 298.413L211.027 309.55L206.244 308.986Z" fill="black"/>
<path d="M246.916 258.691C246.916 258.691 237.294 250.903 222.835 276.134C208.375 301.364 205.071 297.279 205.071 297.279C205.071 297.279 208.028 308.415 206.55 310.635C206.55 310.635 216.539 309.891 220.239 310.635C223.939 311.38 246.881 282.44 246.881 282.44C246.881 282.44 258.758 266.111 246.916 258.691Z" fill="#27409D"/>
<path opacity="0.1" d="M244.354 234.574L226.562 244.952C227.316 246.047 228.011 247.18 228.645 248.348C229.669 248.556 230.71 248.662 231.755 248.662C236.496 248.662 238.697 243.671 241.563 240.309C241.355 237.636 243.535 237.567 244.354 234.574Z" fill="black"/>
<path d="M231.373 247.938C239.957 247.938 246.915 240.961 246.915 232.354C246.915 223.747 239.957 216.77 231.373 216.77C222.789 216.77 215.831 223.747 215.831 232.354C215.831 240.961 222.789 247.938 231.373 247.938Z" fill="#F8D49F"/>
<path opacity="0.1" d="M211.728 219.749C213.296 218.137 215.332 217.065 217.545 216.686C219.704 216.22 222.071 216.081 223.793 214.696C225.743 213.129 226.618 210.151 229.027 209.482C230.074 209.272 231.157 209.359 232.157 209.733C236 210.897 239.411 213.18 241.959 216.289C242.562 217.182 243.33 217.949 244.222 218.552C244.753 218.777 245.272 219.03 245.777 219.31C246.33 219.751 246.764 220.322 247.04 220.974C248.774 224.487 249.174 228.512 248.165 232.298C247.561 234.532 246.478 236.606 245.833 238.834C245.187 241.061 245.027 243.581 246.2 245.571C245.062 246.156 243.625 245.418 242.91 244.353C242.195 243.288 241.98 241.98 241.605 240.748C240.868 238.329 239.48 236.162 237.593 234.484C236.427 233.453 234.344 232.757 233.532 234.087C233.22 234.602 233.24 235.263 232.97 235.799C232.442 236.85 230.887 237.059 229.894 236.495C228.917 235.818 228.23 234.797 227.972 233.634C226.451 228.463 223.848 225.212 218.337 227.419C216.254 228.24 213.859 228.811 211.881 227.419C209.347 225.554 209.854 221.858 211.728 219.749Z" fill="black"/>
<path d="M211.728 219.373C213.296 217.761 215.332 216.689 217.545 216.31C219.704 215.844 222.071 215.705 223.793 214.32C225.743 212.754 226.618 209.775 229.027 209.106C230.074 208.896 231.157 208.983 232.157 209.357C236 210.521 239.411 212.804 241.959 215.914C242.562 216.806 243.33 217.574 244.222 218.176C244.753 218.401 245.272 218.654 245.777 218.934C246.33 219.375 246.764 219.946 247.04 220.598C248.774 224.111 249.174 228.136 248.165 231.922C247.561 234.156 246.478 236.231 245.833 238.458C245.187 240.685 245.027 243.205 246.2 245.195C245.062 245.78 243.625 245.042 242.91 243.977C242.195 242.912 241.98 241.604 241.605 240.372C240.868 237.953 239.48 235.786 237.593 234.108C236.427 233.078 234.344 232.382 233.532 233.711C233.22 234.226 233.24 234.887 232.97 235.423C232.442 236.474 230.887 236.683 229.894 236.119C228.917 235.443 228.23 234.421 227.972 233.259C226.451 228.087 223.848 224.837 218.337 227.043C216.254 227.864 213.859 228.435 211.881 227.043C209.347 225.185 209.854 221.489 211.728 219.373Z" fill="#60595B"/>
<path opacity="0.05" d="M248.699 254.8H241.182C241.182 254.8 226.382 262.22 226.014 261.851C225.764 261.601 223.473 262.032 222.023 262.331C222.25 261.506 222.408 260.664 222.495 259.812C227.305 259.443 239.155 251.279 239.155 251.279L248.408 249.796V254.619C248.512 254.667 248.61 254.728 248.699 254.8Z" fill="black"/>
<path opacity="0.3" d="M244.049 472.454C244.026 473.807 243.871 475.155 243.583 476.477C243.583 476.477 212.873 478.704 203.252 477.96C198.622 477.605 196.658 475.872 196.311 474.215C195.887 476.122 197.567 478.635 203.252 479.087C212.873 479.832 243.583 477.605 243.583 477.605C243.945 475.913 244.101 474.184 244.049 472.454Z" fill="white"/>
<g opacity="0.05">
<path opacity="0.05" d="M203.44 334.377C198.449 338.344 194.034 339.945 191.132 340.641C191.132 340.919 191.188 341.191 191.229 341.455C191.229 341.455 198.261 341.824 207.14 334.781C208.515 333.599 210.141 332.747 211.895 332.289C209.958 331.335 207.195 331.398 203.44 334.377Z" fill="black"/>
<path opacity="0.05" d="M253.656 264.816C252.33 260.912 250.407 255.963 248.887 254.793C248.794 254.718 248.691 254.655 248.581 254.606C248.581 254.606 245.52 254.71 245.624 254.793C247.145 255.956 248.63 260.543 249.956 264.44C251.031 267.609 251.307 270.995 250.761 274.296C249.442 282.259 246.596 298.657 243.403 312.849C238.96 332.512 234.15 328.057 231.935 332.88C230.117 336.834 231.026 342.026 231.422 343.773C232.618 344.374 233.93 344.709 235.267 344.755C235.267 344.755 233.414 338.08 235.635 333.256C237.857 328.433 242.667 332.887 247.103 313.225C250.317 298.998 253.142 282.6 254.461 274.672C255.007 271.371 254.73 267.985 253.656 264.816Z" fill="black"/>
</g>
<path d="M296.66 334.119C297.932 333.079 298.859 331.676 299.318 330.096C299.665 328.495 298.985 326.581 297.458 325.997C295.75 325.342 293.925 326.526 292.543 327.73C291.162 328.934 289.572 330.298 287.76 330.041C288.691 329.194 289.388 328.12 289.782 326.924C290.177 325.727 290.255 324.449 290.009 323.213C289.931 322.7 289.715 322.219 289.385 321.821C288.434 320.804 286.719 321.243 285.581 322.043C281.971 324.591 280.964 329.505 280.944 333.931C280.583 332.337 280.888 330.674 280.874 329.059C280.86 327.444 280.416 325.579 279.042 324.73C278.189 324.271 277.232 324.043 276.265 324.069C274.641 324.006 272.836 324.173 271.725 325.363C270.337 326.839 270.705 329.324 271.906 330.932C273.106 332.539 274.925 333.576 276.605 334.704C277.952 335.506 279.1 336.603 279.965 337.913C280.067 338.094 280.15 338.286 280.215 338.483H290.384C292.663 337.319 294.774 335.851 296.66 334.119Z" fill="#A3B6FF"/>
<defs>
<linearGradient id="paint0_linear_1_15" x1="558.208" y1="429.294" x2="558.208" y2="193.655" gradientUnits="userSpaceOnUse">
<stop stop-color="#808080" stop-opacity="0.25"/>
<stop offset="0.54" stop-color="#808080" stop-opacity="0.12"/>
<stop offset="1" stop-color="#808080" stop-opacity="0.1"/>
</linearGradient>
<linearGradient id="paint1_linear_1_15" x1="40295.1" y1="213642" x2="40295.1" y2="105090" gradientUnits="userSpaceOnUse">
<stop stop-color="#808080" stop-opacity="0.25"/>
<stop offset="0.54" stop-color="#808080" stop-opacity="0.12"/>
<stop offset="1" stop-color="#808080" stop-opacity="0.1"/>
</linearGradient>
</defs>
</svg>
